<mxfile host="Electron" agent="Mozilla/5.0 (X11; Linux x86_64) AppleWebKit/537.36 (KHTML, like Gecko) draw.io/26.0.3 Chrome/130.0.6723.137 Electron/33.2.1 Safari/537.36" version="26.0.3">
  <diagram name="Page-1" id="fKt2-6sfZLJVL2TIdpHR">
    <mxGraphModel dx="333" dy="196" grid="1" gridSize="10" guides="1" tooltips="1" connect="1" arrows="1" fold="1" page="1" pageScale="1" pageWidth="827" pageHeight="1169" math="0" shadow="0">
      <root>
        <mxCell id="0" />
        <mxCell id="1" parent="0" />
        <mxCell id="oc9P-kM8auAjK_G60rm5-11" value="Agent&lt;div&gt;(executable)&lt;/div&gt;" style="rounded=0;whiteSpace=wrap;html=1;fillColor=#f8cecc;strokeColor=#b85450;shadow=1;verticalAlign=bottom;horizontal=1;labelPosition=center;verticalLabelPosition=top;align=center;" parent="1" vertex="1">
          <mxGeometry x="205" y="40" width="105" height="130" as="geometry" />
        </mxCell>
        <mxCell id="oc9P-kM8auAjK_G60rm5-12" value="plugin A (lib)" style="rounded=0;whiteSpace=wrap;html=1;fillColor=#d5e8d4;strokeColor=#82b366;fontSize=11;" parent="1" vertex="1">
          <mxGeometry x="40" y="62.5" width="100" height="20" as="geometry" />
        </mxCell>
        <mxCell id="oc9P-kM8auAjK_G60rm5-13" value="plugin B (lib)" style="rounded=0;whiteSpace=wrap;html=1;fillColor=#CCFFCC;strokeColor=#82b366;fontSize=11;" parent="1" vertex="1">
          <mxGeometry x="40" y="102.5" width="100" height="20" as="geometry" />
        </mxCell>
        <mxCell id="oc9P-kM8auAjK_G60rm5-14" value="Alumet framework&lt;div&gt;(lib)&lt;/div&gt;" style="rounded=0;whiteSpace=wrap;html=1;fillColor=#ffe6cc;strokeColor=#d79b00;fontSize=11;" parent="1" vertex="1">
          <mxGeometry x="40" y="142.5" width="100" height="45" as="geometry" />
        </mxCell>
        <mxCell id="oc9P-kM8auAjK_G60rm5-22" value="" style="rounded=0;whiteSpace=wrap;html=1;fillColor=#d5e8d4;strokeColor=#82b366;" parent="1" vertex="1">
          <mxGeometry x="220" y="80" width="80" height="20" as="geometry" />
        </mxCell>
        <mxCell id="oc9P-kM8auAjK_G60rm5-24" value="" style="rounded=0;whiteSpace=wrap;html=1;fillColor=#CCFFCC;strokeColor=#82b366;" parent="1" vertex="1">
          <mxGeometry x="220" y="110" width="80" height="20" as="geometry" />
        </mxCell>
        <mxCell id="oc9P-kM8auAjK_G60rm5-25" value="" style="rounded=0;whiteSpace=wrap;html=1;fillColor=#ffe6cc;strokeColor=#d79b00;" parent="1" vertex="1">
          <mxGeometry x="220" y="140" width="80" height="20" as="geometry" />
        </mxCell>
        <mxCell id="oc9P-kM8auAjK_G60rm5-29" value="" style="rounded=0;whiteSpace=wrap;html=1;fillColor=#a20025;strokeColor=#6F0000;fontColor=#ffffff;" parent="1" vertex="1">
          <mxGeometry x="220" y="50" width="80" height="20" as="geometry" />
        </mxCell>
        <mxCell id="oc9P-kM8auAjK_G60rm5-30" value="main agent code" style="rounded=0;whiteSpace=wrap;html=1;fillColor=#a20025;strokeColor=#6F0000;fontColor=#ffffff;fontSize=11;" parent="1" vertex="1">
          <mxGeometry x="40" y="22.5" width="100" height="20" as="geometry" />
        </mxCell>
        <mxCell id="oc9P-kM8auAjK_G60rm5-32" value="" style="endArrow=classic;html=1;rounded=0;exitX=1;exitY=0.5;exitDx=0;exitDy=0;entryX=0;entryY=0.5;entryDx=0;entryDy=0;sketch=1;curveFitting=1;jiggle=1;disableMultiStroke=1;curved=1;" parent="1" source="oc9P-kM8auAjK_G60rm5-30" target="oc9P-kM8auAjK_G60rm5-29" edge="1">
          <mxGeometry width="50" height="50" relative="1" as="geometry">
            <mxPoint x="260" y="140" as="sourcePoint" />
            <mxPoint x="310" y="90" as="targetPoint" />
            <Array as="points">
              <mxPoint x="200" y="60" />
            </Array>
          </mxGeometry>
        </mxCell>
        <mxCell id="oc9P-kM8auAjK_G60rm5-33" value="" style="endArrow=classic;html=1;rounded=0;exitX=1;exitY=0.5;exitDx=0;exitDy=0;entryX=0;entryY=0.5;entryDx=0;entryDy=0;sketch=1;curveFitting=1;jiggle=1;disableMultiStroke=1;curved=1;" parent="1" source="oc9P-kM8auAjK_G60rm5-12" target="oc9P-kM8auAjK_G60rm5-22" edge="1">
          <mxGeometry width="50" height="50" relative="1" as="geometry">
            <mxPoint x="150" y="45" as="sourcePoint" />
            <mxPoint x="275" y="80" as="targetPoint" />
          </mxGeometry>
        </mxCell>
        <mxCell id="oc9P-kM8auAjK_G60rm5-34" value="" style="endArrow=classic;html=1;rounded=0;exitX=1;exitY=0.5;exitDx=0;exitDy=0;entryX=0;entryY=0.5;entryDx=0;entryDy=0;sketch=1;curveFitting=1;jiggle=1;disableMultiStroke=1;curved=1;" parent="1" source="oc9P-kM8auAjK_G60rm5-13" target="oc9P-kM8auAjK_G60rm5-24" edge="1">
          <mxGeometry width="50" height="50" relative="1" as="geometry">
            <mxPoint x="150" y="95" as="sourcePoint" />
            <mxPoint x="275" y="110" as="targetPoint" />
          </mxGeometry>
        </mxCell>
        <mxCell id="oc9P-kM8auAjK_G60rm5-35" value="" style="endArrow=classic;html=1;rounded=0;exitX=1;exitY=0.5;exitDx=0;exitDy=0;entryX=0;entryY=0.5;entryDx=0;entryDy=0;sketch=1;curveFitting=1;jiggle=1;disableMultiStroke=1;curved=1;" parent="1" source="oc9P-kM8auAjK_G60rm5-14" target="oc9P-kM8auAjK_G60rm5-25" edge="1">
          <mxGeometry width="50" height="50" relative="1" as="geometry">
            <mxPoint x="150" y="145" as="sourcePoint" />
            <mxPoint x="275" y="140" as="targetPoint" />
          </mxGeometry>
        </mxCell>
      </root>
    </mxGraphModel>
  </diagram>
</mxfile>
